<?xml version="1.0" encoding="UTF-8" standalone="no"?>
<!-- Created with Inkscape (http://www.inkscape.org/) -->

<svg
   xmlns:dc="http://purl.org/dc/elements/1.1/"
   xmlns:cc="http://creativecommons.org/ns#"
   xmlns:rdf="http://www.w3.org/1999/02/22-rdf-syntax-ns#"
   xmlns:svg="http://www.w3.org/2000/svg"
   xmlns="http://www.w3.org/2000/svg"
   xmlns:sodipodi="http://sodipodi.sourceforge.net/DTD/sodipodi-0.dtd"
   xmlns:inkscape="http://www.inkscape.org/namespaces/inkscape"
   version="1.1"
   id="svg3783"
   width="730.88"
   height="461.44"
   viewBox="0 0 730.88 461.44"
   sodipodi:docname="LOGOFEIAXX_vetor-alt.svg"
   inkscape:version="0.92.3 (2405546, 2018-03-11)">
  <metadata
     id="metadata3789">
    <rdf:RDF>
      <cc:Work
         rdf:about="">
        <dc:format>image/svg+xml</dc:format>
        <dc:type
           rdf:resource="http://purl.org/dc/dcmitype/StillImage" />
        <dc:title></dc:title>
      </cc:Work>
    </rdf:RDF>
  </metadata>
  <defs
     id="defs3787" />
  <sodipodi:namedview
     pagecolor="#ffffff"
     bordercolor="#666666"
     borderopacity="1"
     objecttolerance="10"
     gridtolerance="10"
     guidetolerance="10"
     inkscape:pageopacity="0"
     inkscape:pageshadow="2"
     inkscape:window-width="1366"
     inkscape:window-height="717"
     id="namedview3785"
     showgrid="false"
     inkscape:zoom="1.142077"
     inkscape:cx="295.39218"
     inkscape:cy="230.72"
     inkscape:window-x="0"
     inkscape:window-y="27"
     inkscape:window-maximized="1"
     inkscape:current-layer="svg3783"
     inkscape:object-paths="true" />
  <path
     style="fill:#f2f2f2;stroke-width:0.31999999"
     d="m 419.51636,436.50642 c -0.2191,-0.264 -0.80902,-0.48 -1.31098,-0.48 -0.68035,0 -1.03299,-0.23283 -1.38572,-0.91491 -0.55008,-1.06378 -1.54708,-1.53818 -4.10455,-1.95319 -2.70409,-0.43875 -9.78131,-2.35686 -13.99875,-3.79398 -2.024,-0.6897 -4.45085,-1.35181 -5.39296,-1.47136 -0.94214,-0.11955 -2.88614,-0.64947 -4.32,-1.1776 -1.43389,-0.52813 -4.36893,-1.38253 -6.52237,-1.89866 -6.54803,-1.56937 -12.67926,-3.69523 -22.48467,-7.79593 -1.496,-0.62567 -4.088,-1.43591 -5.76,-1.80055 -7.97706,-1.73968 -18.00909,-4.69238 -25.28,-7.4406 -4.41044,-1.66704 -8.59091,-2.8713 -19.68,-5.66916 -7.744,-1.95385 -16.816,-4.35398 -20.16,-5.3336 -5.28026,-1.54688 -12.23133,-3.30278 -18.88,-4.76924 -1.056,-0.23293 -2.856,-0.77626 -4,-1.2074 -1.144,-0.43113 -3.88,-1.15139 -6.08,-1.60054 -2.2,-0.44918 -5.656,-1.41251 -7.68,-2.14077 -2.024,-0.72822 -5.768,-1.82825 -8.32,-2.44445 -2.552,-0.61622 -6.8,-1.81372 -9.44,-2.66118 -6.00458,-1.92742 -11.55412,-3.34979 -16.22577,-4.15869 -1.98782,-0.34419 -5.48623,-1.21571 -7.77423,-1.9367 -2.288,-0.72099 -7.4,-2.17738 -11.36,-3.23639 -3.96,-1.05904 -9.072,-2.48665 -11.36,-3.17251 -2.288,-0.68585 -5.312,-1.47785 -6.72,-1.76003 -1.408,-0.28218 -4.216,-1.00045 -6.24,-1.59616 -2.08066,-0.61238 -5.48241,-1.30458 -7.82724,-1.59267 -2.35499,-0.28935 -6.84942,-1.20512 -10.4,-2.11904 -3.43902,-0.88525 -9.56476,-2.44327 -13.61276,-3.46231 -4.048,-1.01907 -8.584,-2.22147 -10.08,-2.67206 -3.89083,-1.17184 -17.58197,-4.52272 -23.04,-5.63898 -2.552,-0.52192 -6.008,-1.23801 -7.68,-1.59136 -1.672,-0.35331 -4.408004,-0.80758 -6.080004,-1.00947 -1.672,-0.20189 -3.455648,-0.58192 -3.963661,-0.84457 -0.508016,-0.26266 -2.355977,-0.82436 -4.106579,-1.24823 -1.750605,-0.4239 -5.113731,-1.35382 -7.473613,-2.06649 -4.575177,-1.3817 -11.311881,-2.78026 -18.42256,-3.82461 -2.401526,-0.35271 -4.987472,-0.86042 -5.746547,-1.12823 -0.759075,-0.26784 -2.730522,-0.62697 -4.380995,-0.79811 -2.121251,-0.21997 -3.641684,-0.59245 -5.187088,-1.27072 -1.396414,-0.61289 -2.721235,-0.95955 -3.667139,-0.95955 -1.145656,0 -1.658722,-0.17782 -2.266364,-0.78544 -0.432,-0.432 -0.785454,-0.90144 -0.785454,-1.0432 0,-0.30467 178.914334,-44.64087 183.738034,-45.53153 1.81609,-0.33532 6.54197,-1.13057 10.50197,-1.76721 8.73404,-1.40416 20.06733,-3.60326 27.2,-5.27786 20.08388,-4.7153 22.59492,-5.38035 25.86688,-6.85089 2.43002,-1.09214 4.50862,-1.72916 7.98888,-2.44834 6.40972,-1.32454 7.82378,-1.69925 13.18424,-3.49361 6.67798,-2.23539 20.90968,-5.49894 21.42384,-4.91282 0.1307,0.14899 19.93357,38.1429 44.00634,84.4309 24.0728,46.288 44.33705,85.204 45.03168,86.48 1.14163,2.09709 1.27795,3.0688 0.25814,1.84 z m -14.72,-16.47408 c 0,-0.91962 -2.58198,-3.96016 -6.25501,-7.36592 -3.6784,-3.41075 -13.01574,-13.46771 -15.18336,-16.35354 -2.55469,-3.40115 -3.65939,-4.58982 -5.37005,-5.77817 -0.77625,-0.53927 -1.93104,-1.84147 -2.66864,-3.00938 -0.71513,-1.13232 -2.05059,-2.74281 -2.96774,-3.57885 -0.91712,-0.83603 -2.52422,-2.73654 -3.57136,-4.22332 -1.0471,-1.48682 -4.06384,-4.94631 -6.70384,-7.68781 -2.64,-2.74151 -6.168,-6.77258 -7.84,-8.95792 -1.672,-2.18535 -4.48,-5.75936 -6.24,-7.94227 -1.76,-2.18292 -4.54429,-5.7194 -6.1873,-7.85885 -1.643,-2.13943 -4.10009,-5.18589 -5.46022,-6.76989 -2.97483,-3.46448 -10.41639,-12.86992 -11.77302,-14.88 -0.53453,-0.792 -1.30064,-2.088 -1.70245,-2.88 -0.40182,-0.792 -1.83435,-2.62013 -3.18341,-4.0625 -1.34906,-1.44236 -2.8626,-3.38636 -3.36344,-4.32 -0.50083,-0.93362 -2.15158,-2.9935 -3.66834,-4.5775 -1.51676,-1.584 -3.61183,-3.99367 -4.65572,-5.35483 -2.15114,-2.80492 -3.37128,-3.58256 -4.92295,-3.13754 -0.55823,0.16009 -2.70431,0.45358 -4.76906,0.65218 -2.06475,0.19861 -5.19409,0.57918 -6.95409,0.84571 -1.76,0.26653 -5,0.60839 -7.2,0.7597 -2.88138,0.19816 -4.49219,0.473 -5.76,0.98279 -1.4085,0.56636 -2.7506,0.7574 -6.72,0.95654 -7.65011,0.3838 -14.69827,0.91587 -16.64,1.25616 -0.968,0.16964 -3.2,0.46178 -4.96,0.64919 -1.76,0.18742 -4.68331,0.62186 -6.49624,0.96543 -1.81294,0.34357 -4.62094,0.62748 -6.24,0.63092 -1.61907,0.003 -4.52776,0.22006 -6.46376,0.48139 -1.936,0.26134 -5.968,0.75863 -8.96,1.10508 -2.992,0.34646 -6.952,0.92376 -8.8,1.28289 -1.848,0.35912 -5.16,0.80199 -7.36,0.98415 -4.52213,0.37443 -6.96728,0.75465 -9.18976,1.429 -0.84163,0.25537 -2.75424,0.46797 -4.25024,0.47242 -1.496,0.004 -5.456,0.21901 -8.8,0.47674 -3.344,0.2577 -7.20543,0.47162 -8.58096,0.47533 -1.37553,0.004 -4.97553,0.36051 -8,0.79289 -6.5951,0.94285 -16.25353,1.98384 -22.56519,2.4321 -2.53135,0.17978 -5.48702,0.53117 -6.56815,0.78086 -1.08114,0.24967 -3.0457,0.61789 -4.3657,0.81821 -1.32,0.20035 -3.84,0.71021 -5.6,1.13306 -1.76,0.42285 -3.992,0.77107 -4.96,0.77389 -0.968,0.003 -2.336,0.20044 -3.04,0.43923 -0.71002,0.24086 -3.49951,0.52841 -6.26435,0.64579 -3.15886,0.13408 -5.94974,0.44214 -7.62027,0.84115 -1.44976,0.34627 -3.63943,0.62957 -4.86593,0.62957 -1.288497,0 -2.730267,0.20902 -3.414888,0.49507 -0.651683,0.27229 -2.555059,0.79152 -4.229721,1.15386 -5.044218,1.09136 -9.158528,2.91398 -8.783575,3.8911 0.0838,0.21837 1.481293,0.73699 3.105546,1.15248 1.62425,0.41549 7.921184,2.23904 13.993188,4.05232 6.072,1.81331 14.28,4.15872 18.24,5.21203 3.96,1.05332 9.504,2.56538 12.32,3.36013 2.816,0.79475 13.4,3.52871 23.52,6.07546 10.12,2.54672 18.83055,4.79683 19.35677,5.00025 0.52623,0.20343 2.11023,0.58724 3.52,0.85293 1.40978,0.2657 5.51523,1.20003 9.12323,2.07629 3.608,0.87626 12.896,3.10051 20.64,4.94282 7.744,1.84227 16.456,3.98908 19.36,4.77072 2.904,0.7816 7.91513,1.85395 11.13585,2.38297 9.00795,1.47962 52.67979,12.87827 65.82415,17.18058 2.992,0.97933 9.328,3.18969 14.08,4.91197 4.752,1.72227 10.33207,3.65785 12.40016,4.30128 2.06809,0.64342 6.1721,2.03478 9.12,3.09193 2.9479,1.05712 7.39958,2.41619 9.89258,3.02016 2.49302,0.60394 6.38102,1.83658 8.64,2.7392 9.80838,3.91907 31.49552,11.11379 37.53296,12.45159 2.54412,0.56371 5.28012,1.2847 6.08,1.60217 1.7103,0.67882 2.2543,0.75811 2.2543,0.32861 z m 37.47168,11.53376 c -0.24659,-0.15245 -20.07229,-39.35123 -44.05715,-87.10845 -41.73891,-83.10793 -43.57895,-86.84422 -42.91168,-87.13411 1.04118,-0.45235 1.06704,-0.51223 0.42429,-0.98223 -0.54423,-0.39795 -0.4857,-0.46138 0.72726,-0.78799 0.7255,-0.19537 49.5921,-12.30402 108.59235,-26.90812 59.00029,-14.6041 107.54048,-26.63627 107.86711,-26.73816 0.45062,-0.14056 0.28784,0.26644 -0.67472,1.68707 -0.6977,1.02977 -1.73639,2.70333 -2.3082,3.71902 -1.08144,1.92099 -3.11241,3.83069 -4.49094,4.22274 -0.44,0.12513 -2.76301,1.14601 -5.16224,2.2686 -2.39923,1.12261 -5.71123,2.40061 -7.36,2.84002 -3.51907,0.93786 -5.97728,1.90569 -10.17536,4.00615 -1.68432,0.84272 -4.8624,2.29702 -7.0624,3.23177 -2.2,0.93475 -10.192,4.86415 -17.76,8.732 -7.568,3.86786 -14.69533,7.45932 -15.8385,7.98102 -1.1432,0.52171 -3.5912,1.92054 -5.44,3.10853 -1.84883,1.18799 -5.1615,3.05892 -7.3615,4.15763 -4.93446,2.46435 -9.92678,6.02119 -21.12,15.0472 -1.672,1.34827 -4.264,3.28692 -5.76,4.3081 -3.08467,2.10563 -4.49392,3.24173 -10.72906,8.64953 -5.27888,4.57843 -7.41731,7.07043 -9.19904,10.72 -1.60768,3.29303 -2.7678,5.08611 -4.65856,7.2 -3.90998,4.37148 -6.08329,9.57189 -9.82924,23.52 -2.12202,7.90144 -2.07421,7.64301 -2.42711,13.12 -0.65737,10.20259 -0.67392,11.76816 -0.1696,16.07242 0.2737,2.33616 0.58122,6.45174 0.68333,9.14572 0.10214,2.69396 0.39341,5.88548 0.64726,7.0922 0.25383,1.20675 0.61479,4.11459 0.80208,6.46185 0.37671,4.72096 1.02938,8.85831 2.71114,17.18634 0.61738,3.05721 1.3497,6.87321 1.62739,8.48 0.73242,4.23776 3.1353,11.35485 4.52074,13.39001 0.93712,1.37658 1.26217,2.29904 1.74633,4.95546 0.81898,4.49363 2.24823,8.2567 4.18167,11.00982 l 1.61737,2.30304 -0.18832,2.24612 c -0.19667,2.34595 -0.68515,3.27865 -1.4647,2.7967 z M 24.502451,313.89195 c 0.51428,-2.20597 1.59165,-3.92818 4.06884,-6.50416 1.44379,-1.50136 3.531285,-3.95187 4.638888,-5.44556 1.107602,-1.49369 2.849871,-3.79581 3.871708,-5.11581 1.815089,-2.34472 5.288648,-7.16553 11.61684,-16.12253 1.726275,-2.4434 5.647882,-8.4194 8.714685,-13.28 5.68519,-9.01052 7.063574,-11.00562 12.992102,-18.80507 1.85304,-2.43782 5.005364,-6.86676 7.005165,-9.84209 1.999802,-2.97533 5.709511,-7.99448 8.243799,-11.15365 2.534284,-3.15918 5.349065,-6.84482 6.255062,-8.19031 0.905997,-1.3455 4.035443,-5.61435 6.954323,-9.48635 8.149617,-10.81076 12.048707,-16.37045 18.478687,-26.34865 3.25052,-5.04424 7.74955,-11.61935 9.99784,-14.61135 4.4813,-5.96365 7.01894,-9.70389 13.46086,-19.84001 2.34896,-3.696 5.70031,-8.87734 7.44746,-11.51409 1.74714,-2.63675 3.93688,-6.30875 4.86608,-8.16 0.9292,-1.85125 2.01557,-3.65391 2.41417,-4.00591 1.44915,-1.27975 4.51912,-5.40671 6.50462,-8.74417 1.11767,-1.8787 4.03253,-6.47048 6.47746,-10.20394 7.22363,-11.030647 10.76088,-16.563941 14.27599,-22.331887 1.82339,-2.992 4.61382,-7.175731 6.20096,-9.297181 1.58714,-2.121449 3.44832,-4.785449 4.13596,-5.92 0.68764,-1.13455 1.92362,-2.738061 2.74663,-3.563353 0.82301,-0.825296 1.93763,-2.383568 2.47694,-3.462829 0.53932,-1.079261 1.34753,-2.25094 1.79603,-2.60373 0.4485,-0.352791 1.27265,-1.314519 1.83145,-2.137172 0.5588,-0.822652 1.67503,-2.224857 2.48052,-3.116006 1.35325,-1.497165 9.55646,-13.014752 11.79546,-16.561236 l 0.97319,-1.541504 0.78257,1.381504 c 0.77351,1.365523 18.11324,34.683206 18.37218,35.301507 0.0737,0.176 -1.85421,-1.765747 -4.28427,-4.314995 -2.43006,-2.549248 -6.67985,-6.938359 -9.44398,-9.75358 l -5.02569,-5.118586 -0.97634,0.935396 c -0.53698,0.514464 -1.56362,2.167577 -2.28142,3.673577 -0.71779,1.506003 -2.34962,4.322188 -3.62628,6.258188 -7.38063,11.192429 -12.24111,18.76312 -14.58651,22.72 -1.46052,2.464 -3.4009,5.488 -4.31197,6.72 -0.91107,1.232 -1.84982,2.744 -2.08612,3.36 -0.51006,1.32971 -4.39409,8.258407 -9.59697,17.119997 -2.06669,3.52 -5.0192,8.704 -6.56113,11.52 -3.44212,6.28626 -6.06856,10.70652 -10.07735,16.96 -1.69237,2.64 -3.78633,6.024 -4.65324,7.52 -0.86692,1.49601 -1.81159,2.93601 -2.09927,3.20001 -0.28767,0.264 -1.48238,2.00868 -2.65489,3.87706 -1.17251,1.86838 -2.42808,3.66515 -2.79015,3.99282 -0.36207,0.32768 -1.45639,1.895 -2.43181,3.48295 -0.97543,1.58794 -1.95148,3.10317 -2.16902,3.36717 -0.21754,0.264 -0.55557,0.95703 -0.75118,1.54006 -0.19562,0.58303 -4.94562,8.28703 -10.55556,17.12 -5.60994,8.83297 -11.42559,18.14794 -12.92367,20.69994 -1.49808,2.552 -3.94879,6.584 -5.44603,8.96 -1.49725,2.376 -3.7997,6.336 -5.11657,8.8 -1.31687,2.464 -3.39863,6.01659 -4.62613,7.89464 -2.88684,4.41684 -9.930252,17.31838 -14.86798,27.23395 -1.382743,2.77673 -3.361815,6.30935 -4.39793,7.85028 -1.036118,1.54093 -2.496125,4.01944 -3.244454,5.5078 -0.748333,1.48836 -1.701716,3.15332 -2.118628,3.69992 -1.292339,1.69434 -1.639068,1.66136 6.761978,0.64337 2.464,-0.29856 5.56,-0.82731 6.88,-1.17498 7.807864,-2.05651 8.949244,-2.23452 16.320004,-2.54517 10.1853,-0.42927 13.93959,-0.7842 14.89135,-1.40782 1.39251,-0.91241 6.14205,-8.0936 10.3851,-15.70199 1.27597,-2.288 5.16008,-8.48 8.63135,-13.76 3.47128,-5.28 7.08498,-10.896 8.03046,-12.48 0.94547,-1.584 4.25649,-6.264 7.35782,-10.4 6.83701,-9.118 19.14404,-26.25141 20.65007,-28.7483 1.54857,-2.56743 1.69014,-3.63096 0.64816,-4.86929 -1.02638,-1.21978 -1.02662,-1.2706 -0.013,-2.76429 0.63266,-0.93229 0.77654,-1.44908 0.62634,-2.24973 -0.35007,-1.86602 0.83382,-3.26154 2.78106,-3.27821 1.36769,-0.0117 1.85126,0.59231 1.85126,2.31239 0,0.59656 0.34025,2.22602 0.75611,3.62104 0.41587,1.39501 0.92536,3.54439 1.13222,4.77639 0.36821,2.19304 2.11855,8.00687 2.60119,8.64 0.52435,0.68784 0.92043,2.81822 0.62619,3.36802 -0.82322,1.53821 -1.82996,1.00961 -3.74819,-1.96801 -0.66413,-1.03093 -1.27952,-1.87253 -1.36752,-1.87022 -0.088,0.002 -0.9151,1.33304 -1.838,2.9572 -0.9229,1.62416 -3.33875,5.61701 -5.36856,8.87301 -3.99168,6.40303 -7.15581,12.55629 -8.80345,17.12 -0.57188,1.584 -2.88057,6.56495 -5.13044,11.06877 -2.24986,4.50382 -4.58708,9.47415 -5.19381,11.04519 -0.60673,1.57103 -2.32207,5.23008 -3.81186,8.13123 -1.48978,2.90114 -3.0251,6.22577 -3.41182,7.38805 -0.38671,1.16228 -0.9098,2.38628 -1.16241,2.72 -0.25261,0.33372 -0.46387,0.80659 -0.46947,1.05082 -0.0126,0.55119 2.18569,0.33758 6.1231,-0.59496 1.4667,-0.34738 6.26672,-1.21535 10.66672,-1.92882 4.4,-0.71346 12.248,-2.0816 17.44,-3.04029 5.192,-0.95869 13.112,-2.31104 17.6,-3.00522 15.18172,-2.34824 25.53055,-4.53444 31.22872,-6.5971 1.85778,-0.67249 4.2297,-1.24994 6.00155,-1.46109 1.61135,-0.19204 4.51373,-0.61648 6.44973,-0.94322 1.936,-0.32674 5.032,-0.6933 6.88,-0.81458 2.89466,-0.18997 8.99921,-1.29399 17.44,-3.15405 1.232,-0.27149 3.35271,-0.49612 4.71269,-0.49917 1.89252,-0.004 2.98122,-0.20214 4.64,-0.84336 1.72544,-0.667 3.01545,-0.88869 6.32731,-1.08735 2.59197,-0.15548 4.60844,-0.44278 5.34972,-0.76219 0.68291,-0.29427 2.06906,-0.51266 3.25391,-0.51266 1.46952,0 3.10441,-0.32615 5.67504,-1.13212 1.98597,-0.62267 4.60141,-1.30199 5.81208,-1.5096 2.73001,-0.46814 2.98131,-0.82425 2.5071,-3.55278 -0.18789,-1.08103 -0.48902,-3.0455 -0.6692,-4.3655 -0.18019,-1.32 -0.64418,-3.82852 -1.03111,-5.5745 l -0.7035,-3.1745 0.86015,-1.54059 c 0.8377,-1.50041 0.84634,-1.56953 0.33104,-2.65013 -0.43472,-0.9116 -0.45577,-1.19791 -0.11799,-1.60491 0.55386,-0.66736 1.07774,-0.62336 1.77692,0.14923 0.32084,0.35452 3.56829,6.36652 7.21655,13.36 5.56071,10.65952 6.548,12.75218 6.10624,12.94289 -0.28979,0.12513 -67.84692,16.00666 -150.12692,35.2923 -82.280004,19.28563 -149.857629,35.14275 -150.172509,35.23803 -0.48612,0.14711 -0.54065,0.0366 -0.3614,-0.73229 z M 345.40414,238.21718 C 344.93409,237.98928 329.22007,206.99213 293.15602,135.15361 264.78928,78.647914 241.63328,32.362829 241.69824,32.297872 c 0.099,-0.09904 368.0826,71.293018 379.57812,73.641498 2.112,0.43148 8.376,1.65105 13.92,2.71017 20.02045,3.82467 26.2032,5.10141 27.19971,5.61672 1.08176,0.5594 6.65571,1.76278 16.41114,3.54306 9.67366,1.76536 21.90173,4.74339 22.75037,5.54065 0.99356,0.93341 1.12243,0.85943 0.93513,-0.53684 -0.11875,-0.88537 -0.0198,-1.33198 0.36653,-1.65251 0.82845,-0.68754 1.27178,0.007 2.7479,4.30579 0.72522,2.112 1.74116,4.67559 2.25764,5.69686 0.90972,1.79897 0.93139,1.94863 0.69529,4.8 -0.21779,2.63026 -0.31357,2.95313 -0.90073,3.03715 -0.48208,0.069 -0.92343,-0.31453 -1.65735,-1.44 -0.55017,-0.84371 -1.65622,-2.17376 -2.45792,-2.95568 l -1.45763,-1.42168 -1.10995,0.52931 c -1.06259,0.50672 -1.22304,0.49547 -3.75914,-0.26363 -1.45705,-0.43611 -4.88384,-1.08879 -7.6151,-1.4504 -2.73123,-0.3616 -7.05389,-1.14486 -9.60589,-1.74057 -2.552,-0.59571 -6.296,-1.23948 -8.32,-1.43062 -2.024,-0.19113 -4.976,-0.55407 -6.56,-0.80653 -1.584,-0.25246 -3.456,-0.51602 -4.16,-0.58569 -0.704,-0.0697 -3.224,-0.58477 -5.6,-1.14467 -6.48845,-1.52899 -21.80643,-4.01379 -35.68,-5.78783 -12.56333,-1.6065 -20.74816,-2.82779 -24.73014,-3.69007 -2.06244,-0.44662 -6.41386,-1.24235 -9.66986,-1.7683 -3.256,-0.52594 -8.152,-1.38148 -10.88,-1.90118 -5.28506,-1.00685 -17.13661,-2.75187 -26.07949,-3.83994 -5.12701,-0.6238 -10.2559,-1.53789 -12.68208,-2.26025 -0.59312,-0.1766 -3.09718,-0.45396 -5.56457,-0.61636 -2.58269,-0.16999 -6.52013,-0.71019 -9.28,-1.27318 -5.19588,-1.05993 -11.51991,-2.15168 -23.99386,-4.14218 -4.4,-0.70212 -8.65978,-1.477487 -9.46618,-1.723047 -0.80636,-0.24556 -1.89843,-0.38302 -2.42681,-0.30547 -0.52835,0.0775 -2.53258,-0.095 -4.45383,-0.38351 -1.92124,-0.28847 -6.01318,-0.65223 -9.09318,-0.80834 -4.0889,-0.20726 -6.20445,-0.46434 -7.84,-0.95272 -1.232,-0.36788 -5.12,-1.02834 -8.64,-1.4677 -3.52,-0.43935 -7.84,-1.070045 -9.6,-1.40153 -1.76,-0.331488 -4.136,-0.699101 -5.28,-0.816918 -1.144,-0.117815 -7.552,-0.842528 -14.24,-1.610468 -15.1256,-1.73678 -20.12058,-2.185456 -24.8,-2.227676 -2.024,-0.01827 -4.4,-0.195744 -5.28,-0.394407 -0.88,-0.198659 -3.328,-0.454867 -5.44,-0.569347 -2.112,-0.11448 -5.712,-0.408326 -8,-0.652989 -2.288,-0.244665 -7.04,-0.664925 -10.56,-0.933917 -8.53709,-0.652384 -15.98909,-1.336499 -23.36,-2.144518 -3.344,-0.366576 -9.104,-0.788707 -12.8,-0.938064 -3.696,-0.14936 -7.728,-0.485277 -8.96,-0.746483 -1.34032,-0.284173 -5.13182,-0.560883 -9.44,-0.688947 -3.98035,-0.118317 -8.04519,-0.404314 -9.09006,-0.639562 -1.50076,-0.337891 -2.65274,-0.352995 -5.59288,-0.07334 -2.74386,0.260989 -4.90634,0.255837 -8.34994,-0.0199 -5.90703,-0.472982 -6.38892,-0.465475 -6.60704,0.102932 -0.0989,0.25775 0.10124,0.86975 0.44477,1.36 0.34353,0.490246 0.95232,1.886198 1.35286,3.102115 0.41228,1.251558 1.49665,3.334176 2.49926,4.8 0.97406,1.424083 3.2403,5.621429 5.0361,9.327436 1.79579,3.70601 3.98737,7.8907 4.87016,9.2993 0.8828,1.40862 3.58844,6.22442 6.01255,10.70181 2.42411,4.47738 5.7009,10.22869 7.28175,12.78069 1.58085,2.552 3.59064,5.97983 4.4662,7.61741 0.87555,1.63757 1.89889,3.17215 2.27409,3.41017 0.77042,0.48874 15.21098,0.85737 37.96218,0.96906 7.128,0.035 15.048,0.22902 17.6,0.43117 2.552,0.20214 7.808,0.51399 11.68,0.69298 16.66848,0.77055 20.95389,1.0142 23.52,1.33721 1.496,0.18832 11.864,0.45503 23.04,0.5927 19.54915,0.24081 29.83616,0.5328 43.2,1.22621 3.432,0.17808 8.79482,0.41199 11.91738,0.51981 l 5.67734,0.19603 0.54666,-1.14635 c 0.30201,-0.63327 0.85683,-1.22419 1.23968,-1.32028 0.97305,-0.24422 3.0734,0.37893 3.9127,1.16084 1.14374,1.06557 0.88736,2.52144 -1.49226,8.47305 l -2.17504,5.44 h -1.4126 c -1.29687,0 -1.46372,-0.0953 -2.03639,-1.16383 -0.55917,-1.04325 -0.57993,-1.29667 -0.20067,-2.4459 0.23274,-0.70513 0.32842,-1.43531 0.21264,-1.62262 -0.22234,-0.35978 -25.20323,-0.24994 -25.79114,0.1134 -0.16582,0.10248 -4.58928,0.32684 -9.82988,0.49856 -5.24064,0.17173 -13.48842,0.44316 -18.32842,0.60318 -10.40368,0.34397 -13.82931,0.56713 -17.92,1.16737 -1.672,0.24533 -5.28384,0.44692 -8.02634,0.44795 -3.35852,0.001 -7.06704,0.25993 -11.36,0.79231 -3.5055,0.43474 -8.74966,0.94266 -11.65366,1.12872 -6.76605,0.43351 -11.26701,0.8736 -14.88,1.45491 -1.584,0.25486 -4.824,0.46867 -7.2,0.47513 -4.72912,0.0129 -6.14259,0.16365 -13.28,1.41654 -2.64,0.46342 -6.528,0.96828 -8.64,1.12191 -2.112,0.15363 -4.272,0.45246 -4.8,0.66407 -0.528,0.2116 -2.13658,0.4982 -3.57459,0.63689 -3.07969,0.29701 -3.94541,0.53204 -3.94541,1.07112 0,0.51203 4.33235,7.70951 7.25709,12.05648 1.24937,1.85691 2.87209,4.5705 3.60601,6.03021 0.73392,1.4597 2.25197,3.99792 3.37344,5.64047 1.12144,1.64255 3.13232,5.14496 4.46861,7.78312 2.88791,5.70144 3.86925,6.7742 6.18599,6.76219 0.82988,-0.004 2.08851,-0.14176 2.79699,-0.30547 0.70848,-0.1637 4.02048,-0.58606 7.36,-0.93858 3.33952,-0.35253 7.43987,-0.9244 9.11187,-1.27082 5.72317,-1.18582 8.80643,-1.6287 15.68,-2.25226 6.52835,-0.59226 18.63382,-2.50044 42.06397,-6.63054 7.8695,-1.38719 8.34896,-1.51196 9.16432,-2.38478 l 0.86035,-0.92101 4.43568,0.19237 c 3.73968,0.16218 4.97158,0.0874 7.8511,-0.47648 1.87847,-0.36787 7.20647,-1.17998 11.84,-1.8047 4.63351,-0.62471 9.21658,-1.27438 10.18458,-1.4437 0.968,-0.16932 7.088,-1.09508 13.6,-2.05726 20.39942,-3.01408 40.21277,-6.45834 43.35136,-7.53598 1.54253,-0.52963 3.29152,-0.96591 3.88662,-0.9695 2.47245,-0.0149 10.71226,-1.30573 13.05076,-2.04446 1.38502,-0.43752 6.38665,-1.38836 11.11475,-2.11297 4.72806,-0.72461 10.90051,-1.80778 13.71651,-2.40705 6.83002,-1.45349 10.52397,-2.14734 18.70806,-3.51398 3.77744,-0.63078 9.60944,-1.72339 12.96,-2.42801 3.35056,-0.70462 9.61994,-1.98411 13.93194,-2.84331 4.312,-0.8592 12.24637,-2.50367 17.63194,-3.65437 5.38556,-1.15071 11.61251,-2.38426 13.83763,-2.74123 2.22515,-0.35697 5.37878,-1.07568 7.00806,-1.59713 1.62931,-0.52145 3.82637,-1.03584 4.88237,-1.14309 1.056,-0.10725 2.89971,-0.40387 4.09712,-0.65916 1.66966,-0.35596 2.47626,-0.38361 3.46042,-0.1186 1.0783,0.29035 1.59596,0.23734 3.24067,-0.33184 1.72896,-0.59834 2.37075,-0.65201 5.49958,-0.45995 2.31491,0.1421 3.9857,0.0922 4.82221,-0.14396 0.704,-0.19877 3.02608,-0.50622 5.16016,-0.68322 3.55347,-0.29474 6.61338,-0.90671 9.90115,-1.98018 l 1.25869,-0.41096 0.16,-2.08 c 0.23987,-3.1182 2.13165,-6.13945 3.25862,-5.20413 0.4688,0.38906 4.93661,10.57306 4.71578,10.74921 -0.10854,0.0866 -105.20006,24.75605 -307.0144,72.06944 -10.736,2.51695 -28.46522,6.67535 -39.39824,9.24088 -10.93302,2.56553 -20.50902,4.65486 -21.28,4.64295 -0.77098,-0.0119 -1.70426,-0.16832 -2.07398,-0.34758 z"
     id="path3793"
     inkscape:connector-curvature="0" />
</svg>
